<svg width="16" height="12" viewBox="0 0 16 12" fill="none" xmlns="http://www.w3.org/2000/svg">
<path d="M14.5928 5.2947C14.9342 5.74132 14.9342 6.34425 14.5928 6.79014C13.5173 8.1941 10.937 11.0848 7.92455 11.0848C4.91206 11.0848 2.33178 8.1941 1.2563 6.79014C1.09018 6.5763 1 6.31322 1 6.04242C1 5.77163 1.09018 5.50855 1.2563 5.2947C2.33178 3.89075 4.91206 1 7.92455 1C10.937 1 13.5173 3.89075 14.5928 5.2947V5.2947Z" stroke="black" stroke-width="1.44069" stroke-linecap="round" stroke-linejoin="round"/>
<path d="M7.92471 8.20355C9.11822 8.20355 10.0857 7.23602 10.0857 6.04251C10.0857 4.849 9.11822 3.88147 7.92471 3.88147C6.7312 3.88147 5.76367 4.849 5.76367 6.04251C5.76367 7.23602 6.7312 8.20355 7.92471 8.20355Z" stroke="black" stroke-width="1.44069" stroke-linecap="round" stroke-linejoin="round"/>
</svg>
