<svg width="15" height="14" viewBox="0 0 15 14" fill="none" xmlns="http://www.w3.org/2000/svg">
<path d="M8.39592 1.22458L8.39593 1.2246C8.93263 1.01037 9.48171 0.90574 10.0175 0.900229L10.0185 1.00022L10.0175 0.900229C11.625 0.883716 13.1145 1.76249 13.8071 3.25993L13.8215 3.29083L13.8266 3.30176L13.8259 3.30198L13.8367 3.33523L13.8368 3.33544C14.4499 5.22976 13.9347 7.14888 12.8799 8.56938C12.8798 8.56946 12.8797 8.56954 12.8797 8.56963C12.8796 8.56967 12.8796 8.56971 12.8796 8.56976L12.8794 8.57009L12.8783 8.5716C12.8765 8.57411 12.8748 8.57636 12.8732 8.57835C12.2132 9.487 11.4362 10.2585 10.6539 10.9263C10.6524 10.9278 10.6505 10.9296 10.6481 10.9316L10.5836 10.8551M8.39592 1.22458L8.35546 12.7573C8.60174 12.6022 8.873 12.4063 9.15012 12.1933C9.69646 11.7733 10.2615 11.2894 10.6343 10.9436L10.6344 10.9436C10.6343 10.9436 10.6345 10.9435 10.6348 10.9432L10.636 10.9422L10.64 10.9387L10.6405 10.9383C10.6432 10.936 10.6478 10.9321 10.6517 10.9284L10.6516 10.9283L10.6362 10.9117L10.5858 10.853M8.39592 1.22458L8.39393 1.22542L8.37009 1.23554L8.36998 1.23528L8.36335 1.2387L8.33993 1.25077C8.33987 1.2508 8.33981 1.25083 8.33974 1.25086C8.02538 1.41097 7.73651 1.6082 7.47661 1.8399C5.98485 0.607472 3.66334 0.538594 2.06734 1.97742L2.06705 1.97769L2.05115 1.99214L2.05097 1.99195L2.04598 1.99719L2.03171 2.01217C2.03169 2.0122 2.03167 2.01222 2.03165 2.01224C0.605691 3.50174 0.648285 5.7824 1.49029 7.56778L1.4902 7.56783L1.49223 7.57168L1.49897 7.5845L1.50574 7.59804L1.5057 7.59806L1.5072 7.60083C2.49755 9.43473 4.34179 10.9866 6.00763 12.253L6.01026 12.2552L6.01025 12.2552L6.01154 12.2563L6.01515 12.2592L6.01509 12.2592L6.01871 12.2619C6.06406 12.2951 6.12467 12.3448 6.19931 12.4059C6.20837 12.4133 6.21764 12.4209 6.22711 12.4287C6.31333 12.4992 6.41399 12.581 6.52218 12.6623C6.7357 12.8227 6.9921 13.0111 7.36839 13.083L8.39592 1.22458ZM10.5836 10.8551L10.6329 10.9082L10.5858 10.853M10.5836 10.8551C10.5813 10.8573 10.5782 10.86 10.575 10.8627C10.5719 10.8654 10.5687 10.8681 10.5663 10.8703L12.8642 8.58804M10.5836 10.8551L10.5858 10.853M10.5858 10.853C11.3664 10.1869 12.1395 9.41908 12.795 8.51591M12.795 8.51591L12.8746 8.57644C12.8704 8.58194 12.8665 8.58587 12.8642 8.58804M12.795 8.51591L12.7957 8.51519L12.859 8.56234L12.795 8.51591ZM12.8642 8.58804C12.8637 8.58851 12.8632 8.58897 12.8628 8.58938L12.8642 8.58804ZM11.7849 7.76869L11.7846 7.76902L11.7825 7.77191L11.7818 7.77287C11.1977 8.57892 10.4891 9.28608 9.75209 9.91325L9.75204 9.91319L9.74904 9.91596L9.73969 9.92459L9.73965 9.92464L9.7303 9.93326L9.72998 9.93356C9.39867 10.242 8.83635 10.7237 8.32292 11.1184C8.06615 11.3158 7.82161 11.491 7.63323 11.6095C7.58498 11.6399 7.53812 11.6634 7.49491 11.683C7.44734 11.6552 7.39278 11.6201 7.33683 11.5781C7.26646 11.5252 7.19377 11.4654 7.11635 11.4017C7.10973 11.3963 7.10308 11.3908 7.0964 11.3853C7.01221 11.3161 6.923 11.2433 6.82954 11.1743L6.82238 11.1689L6.82203 11.1687C5.20565 9.93926 3.51918 8.45774 2.71065 6.97342C2.0576 5.576 2.09707 3.92792 2.99468 2.96968C4.22874 1.87581 6.05876 2.1164 6.9693 3.23774L6.96933 3.23778L7.43039 3.80507L7.51009 3.90314L7.58721 3.80302L8.03308 3.2242C8.03308 3.22419 8.03309 3.22418 8.0331 3.22417C8.27955 2.90445 8.57285 2.66014 8.92966 2.47387C9.30747 2.3269 9.68133 2.25169 10.0396 2.24345C11.1293 2.21839 12.0829 2.79935 12.5593 3.79596C12.9995 5.2081 12.6175 6.65037 11.7869 7.76603L11.7849 7.76869Z" fill="black" stroke="black" stroke-width="0.2"/>
</svg>
