<svg width="21" height="19" viewBox="0 0 21 19" fill="none" xmlns="http://www.w3.org/2000/svg">
<path d="M14.1748 0.000343797C13.3695 0.00862713 12.5436 0.165877 11.7355 0.488427L11.6988 0.503994L11.6622 0.522894C11.1499 0.783761 10.683 1.11009 10.268 1.49683C8.03426 -0.435123 4.47808 -0.57534 2.04514 1.61801L2.02068 1.64024L1.99844 1.66359C-0.135824 3.89286 -0.0858409 7.32605 1.19349 10.0387L1.20461 10.0599L1.21573 10.0821C2.72246 12.8722 5.536 15.243 8.09996 17.1921L8.10663 17.1976L8.11218 17.2021C8.27713 17.323 8.56076 17.573 8.88821 17.8191C9.21565 18.0652 9.58553 18.3349 10.1267 18.4384L10.2479 18.4617L10.3702 18.4517C10.9383 18.4027 11.1611 18.193 11.5343 17.9581C11.9075 17.7232 12.3206 17.425 12.745 17.0987C13.5817 16.4554 14.4475 15.714 15.0175 15.1853C15.0249 15.1784 15.037 15.1686 15.0442 15.1619C15.0454 15.1609 15.0464 15.1596 15.0476 15.1586C16.2484 14.1339 17.438 12.9526 18.4463 11.563C18.4467 11.5626 18.4471 11.5623 18.4474 11.5619C18.4493 11.5594 18.4511 11.5567 18.453 11.5541C20.0522 9.40093 20.828 6.49923 19.9028 3.6404L19.8861 3.58925L19.8639 3.54143C18.825 1.29553 16.5906 -0.0244729 14.1748 0.000343797ZM14.2037 1.75921C15.9443 1.71918 17.47 2.65118 18.2273 4.24518C18.9272 6.4768 18.3222 8.75051 17.0188 10.5012L17.0155 10.5057L17.0121 10.5102C16.1041 11.7632 15.0045 12.86 13.8646 13.83L13.8502 13.8433L13.8357 13.8567C13.3224 14.3345 12.4536 15.0787 11.6599 15.6889C11.2631 15.994 10.8826 16.2667 10.5871 16.4527C10.4759 16.5227 10.3703 16.5704 10.2835 16.6073C10.1924 16.5575 10.0767 16.4873 9.95668 16.3971C9.71501 16.2155 9.45768 15.9837 9.1773 15.7767C9.17293 15.7734 9.16833 15.7701 9.16396 15.7667C6.67573 13.8742 4.05479 11.5761 2.79448 9.25938C1.77129 7.0735 1.81594 4.45718 3.26143 2.91991C5.22686 1.17238 8.14681 1.55229 9.6031 3.34573L10.3124 4.2185L10.9984 3.32795C11.3931 2.8159 11.8641 2.42444 12.436 2.12721C13.0353 1.89306 13.6309 1.77238 14.2037 1.75921Z" fill="black"/>
</svg>
